<?xml version="1.0" standalone="no"?>
<!DOCTYPE svg PUBLIC "-//W3C//DTD SVG 20010904//EN"
 "http://www.w3.org/TR/2001/REC-SVG-20010904/DTD/svg10.dtd">
<svg version="1.0" xmlns="http://www.w3.org/2000/svg"
 width="512.000000pt" height="512.000000pt" viewBox="0 0 512.000000 512.000000"
 preserveAspectRatio="xMidYMid meet">
<metadata>
Created by potrace 1.14, written by Peter Selinger 2001-2017
</metadata>
<g transform="translate(0.000000,512.000000) scale(0.100000,-0.100000)"
fill="#000000" stroke="none">
<path d="M4350 5105 c-138 -31 -286 -129 -374 -248 -37 -51 -53 -80 -85 -164
-58 -149 -42 -364 38 -498 l19 -33 -408 -408 c-225 -225 -413 -410 -419 -412
-6 -2 -23 5 -38 16 -112 78 -276 136 -423 150 -81 8 -91 8 -210 -2 -136 -11
-319 -81 -443 -170 -69 -49 -81 -53 -94 -33 -4 7 -95 86 -200 176 l-193 162
16 37 c44 100 59 240 39 356 -76 429 -538 649 -930 443 -84 -44 -201 -164
-247 -252 -49 -95 -69 -168 -73 -273 -5 -115 14 -206 64 -307 83 -168 225
-282 409 -330 81 -21 204 -26 272 -11 14 3 38 8 54 12 37 8 112 41 158 71 21
12 40 23 42 23 3 0 26 -19 53 -41 26 -23 71 -61 98 -84 28 -24 98 -84 158
-135 59 -50 107 -95 107 -99 0 -3 -6 -15 -14 -26 -26 -38 -85 -200 -101 -280
-37 -176 -12 -407 60 -560 7 -17 18 -41 23 -55 5 -14 25 -48 45 -77 l34 -51
-275 -276 -276 -276 -25 17 c-169 111 -415 147 -626 92 -172 -46 -350 -174
-451 -326 -214 -322 -162 -765 119 -1019 143 -130 306 -199 494 -211 339 -22
655 180 782 499 29 72 34 89 48 178 25 161 -20 396 -98 511 -10 14 -19 31 -21
37 -2 6 120 135 271 286 l274 275 31 -24 c17 -12 63 -39 103 -59 168 -83 378
-117 563 -90 47 7 88 9 91 6 3 -4 40 -88 82 -187 42 -99 117 -276 167 -394
l91 -214 -28 -31 c-16 -17 -31 -33 -34 -36 -3 -3 -17 -25 -32 -50 -142 -246
-35 -565 227 -674 54 -22 79 -27 168 -31 129 -6 253 43 346 137 43 43 101 133
107 166 2 9 4 17 5 17 10 0 26 121 24 174 -13 240 -209 430 -459 443 l-49 3
-33 80 c-19 44 -38 90 -43 102 -5 11 -58 137 -119 280 -131 308 -145 343 -140
346 120 80 246 209 314 325 2 2 425 -157 470 -177 22 -10 138 -55 251 -97 l70
-26 3 -47 c8 -189 141 -362 324 -421 297 -96 600 114 613 426 6 139 -40 255
-137 355 -178 180 -463 183 -655 7 l-42 -38 -133 51 c-74 29 -150 58 -169 65
-19 7 -134 51 -255 98 l-220 85 1 38 c1 21 4 79 6 128 9 187 -40 377 -139 533
-19 30 -33 58 -31 63 5 15 811 819 821 819 4 0 26 -9 49 -21 298 -152 683 -22
836 282 53 104 71 187 68 309 -7 265 -183 499 -437 580 -85 27 -242 35 -329
15z"/>
</g>
</svg>
